<svg width="175" height="77" viewBox="0 0 175 77" fill="none" xmlns="http://www.w3.org/2000/svg">
<path d="M41.2959 14.2978C76.1137 18.7484 97.0633 18.74 130.887 14.3124C132.417 14.1121 133.775 15.2999 133.775 16.8302V64.3208C133.775 65.8897 132.35 67.09 130.787 66.8259C96.3352 61.0053 75.3756 60.957 41.4171 66.8086C39.8502 67.0786 38.4179 65.8766 38.4179 64.3041V16.816C38.4179 15.2889 39.7693 14.1026 41.2959 14.2978Z" stroke="black" stroke-width="2.01946"/>
<rect x="29.5986" y="24.8887" width="14.8093" height="28.9455" fill="white"/>
<rect x="128.552" y="24.8887" width="14.8093" height="28.9455" fill="white"/>
<path d="M79.5316 57.037C79.1284 57.037 78.7824 56.8926 78.4936 56.6038C78.2048 56.315 78.0604 55.969 78.0604 55.5658C78.0604 55.1626 78.2048 54.8166 78.4936 54.5278C78.7824 54.239 79.1284 54.0946 79.5316 54.0946C79.9348 54.0946 80.2809 54.239 80.5696 54.5278C80.8584 54.8166 81.0028 55.1626 81.0028 55.5658C81.0028 55.8328 80.9347 56.078 80.7985 56.3014C80.6677 56.5248 80.4906 56.7046 80.2672 56.8409C80.0493 56.9716 79.8041 57.037 79.5316 57.037Z" fill="black"/>
<path d="M88.4086 56.9551H87.6296V55.5918H85.0978V56.9551H84.3188V52.8653C84.3188 52.677 84.3837 52.518 84.5135 52.3881C84.6499 52.2518 84.8121 52.1836 85.0004 52.1836H88.4086V56.9551ZM87.6296 54.9102V52.8653H85.0978V55.4944L85.682 54.9102H87.6296ZM90.9366 56.9551H90.1576V52.1836H90.9366V56.9551Z" fill="black"/>
<path d="M20.8212 31.1093L17.5104 45.8574H13.4471L10.5878 35.0522H10.2868L7.42749 45.8574H3.36424L0.0534363 31.1093H2.76227L5.17013 43.8107H5.77209L9.23338 31.1093H11.6412L15.1025 43.8107H15.7045L18.1123 31.1093H20.8212ZM26.9843 45.8574H24.5764V31.1093H26.9843V45.8574ZM45.0361 43.7505C45.0361 44.3124 44.8254 44.804 44.404 45.2254C43.9827 45.6467 43.4911 45.8574 42.9292 45.8574H32.3949V35.3231L34.5017 33.2162H32.3949V31.1093H42.9292C43.4911 31.1093 43.9827 31.32 44.404 31.7414C44.8254 32.1628 45.0361 32.6544 45.0361 33.2162V43.7505ZM42.6283 43.7505V33.2162H34.8027V45.5564L36.6086 43.7505H42.6283ZM60.8294 45.8574H50.2951V35.3231L52.4019 33.2162H50.2951V31.1093H60.8294V33.2162H52.7029V39.2358L54.5088 37.4299H60.8294V39.5368H52.7029V43.7505H60.8294V45.8574ZM83.8604 43.7505C83.8604 44.3324 83.6497 44.8341 83.2283 45.2555C82.827 45.6568 82.3354 45.8574 81.7535 45.8574H73.326C72.7441 45.8574 72.2425 45.6568 71.8211 45.2555C71.4198 44.8341 71.2192 44.3324 71.2192 43.7505V33.2162C71.2192 32.6343 71.4198 32.1427 71.8211 31.7414C72.2425 31.32 72.7441 31.1093 73.326 31.1093H81.7535C82.3354 31.1093 82.827 31.32 83.2283 31.7414C83.6497 32.1427 83.8604 32.6343 83.8604 33.2162V35.3231H81.4526V33.2162H73.627V43.7505H81.4526V41.6437H83.8604V43.7505ZM101.029 45.8574H98.6214V41.6437H90.7959V45.8574H88.3881V33.2162C88.3881 32.6343 88.5887 32.1427 88.99 31.7414C89.4114 31.32 89.913 31.1093 90.4949 31.1093H101.029V45.8574ZM98.6214 39.5368V33.2162H90.7959V41.3427L92.6018 39.5368H98.6214ZM119.076 45.8273H114.863L109.144 33.3366H107.94L108.843 34.8415V45.8273H106.435V31.0792H110.679L116.368 43.57H117.572L116.669 42.0651V31.0792H119.076V45.8273ZM137.726 31.1093L132.097 45.8574H128.184L122.676 31.1093H125.385L129.9 43.8107H130.502L135.017 31.1093H137.726ZM153.966 45.8574H151.558V41.6437H143.732V45.8574H141.324V33.2162C141.324 32.6343 141.525 32.1427 141.926 31.7414C142.348 31.32 142.849 31.1093 143.431 31.1093H153.966V45.8574ZM151.558 39.5368V33.2162H143.732V41.3427L145.538 39.5368H151.558ZM169.304 43.7505C169.304 44.3324 169.093 44.8341 168.672 45.2555C168.271 45.6568 167.779 45.8574 167.197 45.8574H158.77V43.7505H166.896V39.5368H160.876C160.295 39.5368 159.793 39.3361 159.372 38.9348C158.97 38.5135 158.77 38.0118 158.77 37.4299V33.2162C158.77 32.6343 158.97 32.1427 159.372 31.7414C159.793 31.32 160.295 31.1093 160.876 31.1093H169.304V33.2162H161.177V37.4299H167.197C167.779 37.4299 168.271 37.6406 168.672 38.062C169.093 38.4633 169.304 38.9549 169.304 39.5368V43.7505Z" fill="black"/>
</svg>
